HIERARCHY
ROOT Hips
{
	OFFSET 0.000000 0.000000 0.000000
	CHANNELS 6 Xposition Yposition Zposition Xrotation Yrotation Zrotation
	JOINT LeftUpLeg_virtual
	{
		OFFSET 0.000000 0.000000 0.000000
		CHANNELS 3 Xrotation Yrotation Zrotation
		JOINT LeftUpLeg
		{
			OFFSET 10.205400 -3.823500 0.155100
			CHANNELS 3 Xrotation Yrotation Zrotation
			JOINT LeftLeg
			{
				OFFSET 0.708757 -12.982077 0.567790
				CHANNELS 3 Xrotation Yrotation Zrotation
				JOINT LeftFoot
				{
					OFFSET -0.708756 -10.717838 -2.184338
					CHANNELS 3 Xrotation Yrotation Zrotation
					JOINT LeftToeBase
					{
						OFFSET 0.108149 -7.191104 7.560241
						CHANNELS 3 Xrotation Yrotation Zrotation
						JOINT LeftToe_End
						{
							OFFSET 0.070230 0.081724 4.490308
							CHANNELS 3 Xrotation Yrotation Zrotation
							End Site
							{
								OFFSET 0 0 0
							}
						}
					}
				}
			}
		}
	}
	JOINT RightUpLeg_virtual
	{
		OFFSET 0.000000 0.000000 0.000000
		CHANNELS 3 Xrotation Yrotation Zrotation
		JOINT RightUpLeg
		{
			OFFSET -10.205400 -3.823500 0.005500
			CHANNELS 3 Xrotation Yrotation Zrotation
			JOINT RightLeg
			{
				OFFSET -0.708756 -12.982134 0.610632
				CHANNELS 3 Xrotation Yrotation Zrotation
				JOINT RightFoot
				{
					OFFSET 0.708754 -10.717769 -1.945823
					CHANNELS 3 Xrotation Yrotation Zrotation
					JOINT RightToeBase
					{
						OFFSET -0.108140 -7.191069 7.372968
						CHANNELS 3 Xrotation Yrotation Zrotation
						JOINT RightToe_End
						{
							OFFSET -0.070227 0.081735 4.479403
							CHANNELS 3 Xrotation Yrotation Zrotation
							End Site
							{
								OFFSET 0 0 0
							}
						}
					}
				}
			}
		}
	}
	JOINT Spine_virtual
	{
		OFFSET 0.000000 0.000000 0.000000
		CHANNELS 3 Xrotation Yrotation Zrotation
		JOINT Spine
		{
			OFFSET 0.000000 6.876099 0.125700
			CHANNELS 3 Xrotation Yrotation Zrotation
			JOINT Spine1
			{
				OFFSET 0.000000 5.730043 0.104720
				CHANNELS 3 Xrotation Yrotation Zrotation
				JOINT Spine1_split
				{
					OFFSET 0.000000 5.730043 0.104720
					CHANNELS 3 Xrotation Yrotation Zrotation
					JOINT Spine2
					{
						OFFSET 0.000000 5.730043 0.104720
						CHANNELS 3 Xrotation Yrotation Zrotation
						JOINT Neck_virtual
						{
							OFFSET 0.000000 0.000000 0.000000
							CHANNELS 3 Xrotation Yrotation Zrotation
							JOINT Neck
							{
								OFFSET 0.000000 10.314075 0.188496
								CHANNELS 3 Xrotation Yrotation Zrotation
								JOINT Head
								{
									OFFSET 0.000000 7.643700 -2.377400
									CHANNELS 3 Xrotation Yrotation Zrotation
									JOINT HeadTop_End
									{
										OFFSET 0.000000 43.788605 -13.619600
										CHANNELS 3 Xrotation Yrotation Zrotation
										End Site
										{
											OFFSET 0 0 0
										}
									}
								}
							}
						}
						JOINT LeftShoulder_virtual
						{
							OFFSET 0.000000 0.000000 0.000000
							CHANNELS 3 Xrotation Yrotation Zrotation
							JOINT LeftShoulder
							{
								OFFSET 2.196100 4.412489 0.087492
								CHANNELS 3 Xrotation Yrotation Zrotation
								JOINT LeftShoulder_split
								{
									OFFSET 2.196100 4.412489 0.087492
									CHANNELS 3 Xrotation Yrotation Zrotation
									JOINT LeftArm
									{
										OFFSET 8.771219 -2.981674 -0.026999
										CHANNELS 3 Xrotation Yrotation Zrotation
										JOINT LeftForeArm
										{
											OFFSET 8.512804 0.000000 -0.000000
											CHANNELS 3 Xrotation Yrotation Zrotation
											JOINT LeftHand
											{
												OFFSET 18.484802 0.000000 -0.000000
												CHANNELS 3 Xrotation Yrotation Zrotation
												End Site
												{
													OFFSET 0 0 0
												}
											}
										}
									}
								}
							}
						}
						JOINT RightShoulder_virtual
						{
							OFFSET 0.000000 0.000000 0.000000
							CHANNELS 3 Xrotation Yrotation Zrotation
							JOINT RightShoulder
							{
								OFFSET -2.196100 4.412496 0.070690
								CHANNELS 3 Xrotation Yrotation Zrotation
								JOINT RightShoulder_split
								{
									OFFSET -2.196100 4.412496 0.070690
									CHANNELS 3 Xrotation Yrotation Zrotation
									JOINT RightArm
									{
										OFFSET -8.771282 -2.981682 -0.094208
										CHANNELS 3 Xrotation Yrotation Zrotation
										JOINT RightForeArm
										{
											OFFSET -8.494598 0.000000 0.000000
											CHANNELS 3 Xrotation Yrotation Zrotation
											JOINT RightHand
											{
												OFFSET -18.483803 0.000000 0.000001
												CHANNELS 3 Xrotation Yrotation Zrotation
												End Site
												{
													OFFSET 0 0 0
												}
											}
										}
									}
								}
							}
						}
					}
				}
			}
		}
	}
}
MOTION
Frames: 5
Frame Time: 0.03333333
1.650309 49.096195 3.435593 0.000000 0.000000 0.000000 0.580507 -5.003084 15.432799 -87.715714 -2.439444 0.844040 61.174781 -7.669882 -10.684031 36.502611 -4.586119 31.195902 9.587831 -0.271424 -2.693345 0.000000 0.000000 0.000000 -4.891477 -0.642909 16.235901 -93.378658 7.918064 -29.594691 118.576086 17.973253 -7.544454 38.105516 -11.263115 4.802258 54.243617 1.194797 8.107348 0.000000 0.000000 0.000000 -5.706785 2.879386 17.239821 32.410863 -9.852377 -8.050183 0.835508 -3.623340 -0.387508 0.380201 -1.048314 -0.097377 0.000000 0.000000 0.000000 5.765585 0.263067 0.717225 -7.890959 9.629622 6.564343 -17.567728 5.883726 -27.239093 0.000000 0.000000 0.000000 0.949464 -0.951398 -2.126090 12.271774 -25.527796 25.823070 -1.071590 1.492332 3.938938 -38.821941 13.303299 17.638014 -38.284238 -57.496553 -18.134676 0.000000 0.000000 0.000000 4.120258 -1.051692 -1.008743 1.946170 2.433512 -17.682083 10.686967 6.281275 -3.263057 -71.399000 3.463281 -26.180235 -48.118720 46.295978 48.419839 0.000000 0.000000 0.000000 
1.108354 49.178940 6.555326 0.000000 0.000000 0.000000 -0.070592 -4.839601 15.192234 -87.199659 -3.177045 1.934703 58.518233 -8.423247 -10.547619 37.594304 -3.658250 30.560251 10.767621 0.066158 -3.601423 0.000000 0.000000 0.000000 -3.226798 -2.483435 16.598400 -88.325643 5.154074 -29.134404 111.552685 16.926834 -5.548682 33.296756 -11.356433 7.848539 41.246081 0.536850 6.235526 0.000000 0.000000 0.000000 -5.096504 2.866951 16.379185 30.948236 -9.677140 -8.023829 0.203502 -3.795331 -0.683892 0.074948 -0.964469 -0.264497 0.000000 0.000000 0.000000 5.283951 -0.049432 0.272975 -6.557964 9.886140 5.894500 -18.045602 8.057991 -27.802860 0.000000 0.000000 0.000000 0.269895 -1.204164 -2.707935 11.471892 -24.762907 24.278939 -0.441136 0.821573 3.759487 -37.176002 12.056156 17.638554 -42.131868 -58.380270 -22.209759 0.000000 0.000000 0.000000 3.732291 -1.411202 -1.410100 1.813333 1.639113 -17.040262 11.633825 6.522357 -0.654791 -70.097391 1.776456 -25.356476 -48.871137 46.991387 49.597716 0.000000 0.000000 0.000000 
0.570097 49.213886 10.597907 0.000000 0.000000 0.000000 -0.262258 -5.829105 14.906299 -82.189428 -3.411045 2.247472 49.837602 -7.218247 -10.241689 37.730552 -1.690862 29.096626 10.081615 0.362185 -3.957067 0.000000 0.000000 0.000000 -1.398969 -6.441089 16.633191 -78.045054 0.276408 -28.115919 97.165533 15.444033 -3.427991 26.991557 -12.915032 10.678644 28.181060 1.621615 6.299993 0.000000 0.000000 0.000000 -4.087259 1.517981 15.406965 27.811531 -8.991801 -7.613544 -0.099356 -4.299332 -1.670342 -0.072647 -0.683531 -0.188481 0.000000 0.000000 0.000000 5.259267 -0.787306 -0.959070 -4.864174 10.119280 4.938147 -19.148446 10.018890 -27.927826 0.000000 0.000000 0.000000 0.171788 -1.853328 -3.815351 9.927425 -23.270354 20.648750 -0.404825 -0.501509 3.095432 -35.384089 8.188636 16.935229 -42.791934 -57.681685 -23.945564 0.000000 0.000000 0.000000 3.800348 -2.139498 -2.393450 2.094669 2.135240 -15.149614 11.237067 6.383843 0.001630 -67.744610 -0.699510 -24.303220 -50.850454 48.909762 51.962539 0.000000 0.000000 0.000000 
0.244656 49.001972 14.870251 0.000000 0.000000 0.000000 -0.349139 -7.978166 14.361163 -74.910844 -3.967949 2.607977 39.234977 -6.172380 -9.058240 40.073314 0.219648 24.601093 8.600784 0.555082 -4.973906 0.000000 0.000000 0.000000 -0.032413 -11.270668 16.111402 -64.124029 -5.674516 -25.861774 77.147349 13.348226 -1.491501 21.392444 -15.607462 12.929660 18.527902 3.612675 8.623081 0.000000 0.000000 0.000000 -3.379796 -0.769896 14.499489 23.666993 -7.778114 -6.768177 0.077684 -5.025914 -3.259683 -0.053558 -0.405848 0.036096 0.000000 0.000000 0.000000 5.630751 -1.737582 -2.767186 -3.074240 10.224030 4.047963 -20.831794 10.901819 -27.254156 0.000000 0.000000 0.000000 0.690625 -2.735727 -5.359024 7.917093 -21.379091 15.351137 -0.450375 -0.891122 2.877246 -34.803509 2.519628 15.685917 -39.740267 -55.992265 -22.779658 0.000000 0.000000 0.000000 4.217591 -3.074641 -3.851136 2.695236 4.018328 -12.415740 9.845182 6.144792 -0.501453 -65.121462 -3.115537 -23.567476 -52.993566 51.364710 54.376946 0.000000 0.000000 0.000000 
-0.000125 48.300484 19.376942 0.000000 0.000000 0.000000 -0.607012 -12.213370 13.543428 -67.526727 -5.118245 3.980505 30.322830 -6.826476 -7.197766 46.304393 0.570041 16.443795 5.897193 0.639572 -6.331964 0.000000 0.000000 0.000000 0.666169 -15.879608 14.985066 -48.876690 -11.507341 -22.268105 56.171933 11.164397 -0.449176 16.873489 -18.273789 15.534097 10.460000 5.746541 11.795023 0.000000 0.000000 0.000000 -3.041492 -3.665091 13.581035 19.392828 -6.010990 -5.414113 0.661494 -5.764140 -5.257061 0.040766 -0.296984 0.282006 0.000000 0.000000 0.000000 6.277886 -2.608082 -4.913210 -1.641243 10.256828 3.441957 -23.130031 10.540599 -25.451337 0.000000 0.000000 0.000000 1.592402 -3.621827 -7.125748 5.867043 -19.400898 9.738065 0.450083 -0.643398 3.580940 -36.427397 -3.281006 13.905384 -33.688535 -53.724465 -19.178203 0.000000 0.000000 0.000000 4.876223 -3.976813 -5.632038 3.323255 7.160543 -9.323025 8.526774 6.828372 -1.086764 -63.240441 -4.847023 -23.583117 -54.101710 53.702147 55.669935 0.000000 0.000000 0.000000 
